<svg width="1785" height="1379" viewBox="0 0 1785 1379" fill="none" xmlns="http://www.w3.org/2000/svg">
<path d="M874.334 17.2666C837.934 52.7333 788.867 93.5333 729 138.467C677 177.533 643.8 201 499.667 301C294.467 443.4 199.934 519.8 123.667 605C35.8002 703 8.7335 757.533 1.80016 850.333C0.866829 862.333 0.333496 959.4 0.333496 1123.93V1379H892.334H1784.33V1123.93C1784.33 838.467 1784.2 836.067 1774.87 792.867C1766.73 755 1747.93 715.4 1719.27 675.667C1695.93 643.4 1662.07 604.467 1624.47 566.867C1549.4 491.933 1466.87 427.133 1285 301C1140.87 201 1107.67 177.533 1055.67 138.467C996.334 93.9333 947.267 52.9999 910.2 17.2666C900.467 7.93326 892.467 0.333261 892.2 0.333261C891.934 0.466595 883.934 8.0666 874.334 17.2666ZM911.4 144.067C976.2 198.2 1041.93 246.467 1193.67 351.667C1307.27 430.333 1348.2 459.533 1399.67 498.2C1487.8 564.6 1553.4 623 1598.47 675.4C1658.33 745 1690.73 806.867 1696.2 862.2C1699.13 891.933 1697.53 963.267 1693 1003.27C1690.33 1025.8 1687.8 1037.8 1681.4 1057C1661.13 1117.93 1618.2 1170.87 1556.33 1211.4C1501.93 1246.87 1436.6 1269.8 1361 1279.8C1336.87 1283 1285.67 1283.67 1263.8 1281.13C1169.13 1270.07 1093.93 1221.93 1057.27 1149C1020.07 1074.73 1027 980.467 1076.73 882.467C1109.67 817.667 1152.47 774.467 1195 763.4C1205.53 760.733 1225 760.467 1235 762.867C1252.33 767.133 1270.07 777.8 1285.27 793.133C1301.13 809.133 1310.07 831.133 1311.93 857.8C1312.33 865 1312.07 875.533 1311.13 882.333C1309.4 895.4 1304.07 917.133 1301.27 922.467L1299.53 925.933L1295.53 922.6C1271.13 902.2 1238.73 899.533 1211.67 915.667C1180.07 934.6 1163.67 971.933 1172.2 1005.67C1182.6 1047.67 1214.87 1078.87 1260.33 1091.13C1270.2 1093.8 1274.87 1094.2 1296.33 1094.33C1325.4 1094.33 1332.47 1092.87 1353 1083C1379.4 1070.2 1400.07 1049.27 1422.33 1012.33C1426.6 1005.4 1438.47 983.4 1448.6 963.667C1487 889.4 1501.93 866.467 1529 839.667C1554.73 814.2 1582.33 798.067 1615.8 789.267L1627.53 786.067L1612.2 778.6C1584.2 765 1562.47 759.8 1534.33 759.933C1506.87 760.067 1478.07 767.4 1450.87 781.133L1439 787L1435.53 780.2C1416.07 741.667 1386.6 705 1356.33 681.4C1287.13 627.667 1193 609 1070.33 624.467C1058.6 626.067 1048.47 627.267 1047.67 627.4C1043.67 628.2 1051.53 596.2 1059.53 579.667C1077.53 542.867 1112.6 511.267 1178.2 472.867L1187.27 467.667L1177.4 464.6C1109.67 443 1057.8 440.733 1010.47 457.133C989.534 464.467 991.267 464.6 992.467 454.733C1000.07 392.6 989.267 338.867 960.6 295C946.467 273.533 897.8 229.133 891.134 231.667C878.467 236.6 836.467 276.2 824.067 295C804.867 324.333 794.467 355 790.867 393C789.4 408.733 789.934 437 792.2 454.733C793.4 464.6 795.134 464.467 774.2 457.133C743.667 446.467 706.867 443.533 672.334 448.867C656.867 451.267 625.134 458.867 607.267 464.6L597.4 467.667L606.467 472.867C672.067 511.267 707.134 542.867 725.134 579.667C733.134 596.2 741 628.2 737 627.4C736.2 627.267 726.067 626.067 714.334 624.467C591.667 609 497.534 627.667 428.334 681.4C398.067 705 368.6 741.667 349.134 780.2L345.667 787L333.8 781.133C306.6 767.4 277.8 760.067 250.334 759.933C222.2 759.8 200.467 765 172.467 778.6L157.134 786.067L168.867 789.267C202.334 798.067 230.2 814.333 255.667 839.667C279.667 863.533 297.4 889.8 324.467 941.667C361.667 1013.13 369 1025.67 386.2 1046.33C399.667 1062.6 414.6 1074.73 431.667 1083C452.2 1092.87 459.267 1094.33 488.334 1094.33C509.8 1094.2 514.467 1093.8 524.334 1091.13C569.8 1078.87 602.067 1047.67 612.467 1005.67C619.4 978.067 610.734 949.8 588.734 928.067C559.8 899.667 519.134 897.4 489.134 922.6L485.134 925.933L483.4 922.467C482.467 920.6 480.2 913.533 478.334 906.733C469 870.867 471 839.4 484.6 813.267C496.467 790.467 523.934 769.267 549.667 762.867C559.667 760.467 579.134 760.733 589.667 763.4C632.2 774.467 675 817.667 707.934 882.467C762.867 990.6 765.267 1095 714.734 1171C673.667 1232.47 605.4 1271.27 520.867 1281.13C506.334 1282.87 495.4 1283.13 470.334 1282.6C427.934 1281.53 402.334 1278.07 362.067 1268.2C260.2 1243.27 176.6 1187.67 130.067 1113.93C115 1089.93 101 1056.07 95.8002 1030.6C88.4668 995 84.4668 902.6 88.4668 862.2C96.7335 779.267 165.4 681 289.667 574.333C353.534 519.4 423.267 467.933 591 351.667C681.667 288.867 740.067 247.267 783 215.133C813.934 191.933 864.334 152.067 882.334 136.467C887.534 132.067 891.8 128.467 892.067 128.333C892.334 128.333 901 135.4 911.4 144.067Z" fill="#106351"/>
</svg>
